<svg width="20" height="20" viewBox="0 0 20 20" fill="none" xmlns="http://www.w3.org/2000/svg">
<g clip-path="url(#clip0)">
<path d="M18.1537 4.39316C16.0544 4.39316 14.3465 2.68524 14.3465 0.585938C14.3465 0.262299 14.0842 0 13.7605 0H10.6224C10.2989 0 10.0365 0.262299 10.0365 0.585938V13.4518C10.0365 14.686 9.03229 15.69 7.79816 15.69C6.56403 15.69 5.56 14.686 5.56 13.4518C5.56 12.2176 6.56403 11.2135 7.79816 11.2135C8.1218 11.2135 8.38409 10.9512 8.38409 10.6276V7.48947C8.38409 7.16599 8.1218 6.90353 7.79816 6.90353C4.18747 6.90353 1.25 9.84116 1.25 13.4518C1.25 17.0625 4.18747 20 7.79816 20C11.4088 20 14.3465 17.0625 14.3465 13.4518V7.75681C15.5125 8.3786 16.8103 8.70316 18.1537 8.70316C18.4773 8.70316 18.7396 8.44086 18.7396 8.11722V4.9791C18.7396 4.65561 18.4773 4.39316 18.1537 4.39316Z" fill="white"/>
</g>
<defs>
<clipPath id="clip0">
<rect width="20" height="20" fill="white"/>
</clipPath>
</defs>
</svg>
